<svg width="175" height="44" viewBox="0 0 175 44" fill="none" xmlns="http://www.w3.org/2000/svg">
<path d="M136.937 18.0719V10.9539H143.071C143.524 10.9539 143.66 11.2029 143.637 11.5869V12.1519C143.637 18.5469 143.615 24.9419 143.66 31.3359C143.66 32.1939 143.479 32.5329 142.55 32.4879C140.717 32.4199 138.861 32.4649 136.96 32.4649C136.937 31.8779 136.892 31.3579 136.87 30.8609C136.553 30.7479 136.44 30.9969 136.304 31.1319C133.633 33.8889 129.038 33.2119 126.82 30.0919C124.556 26.9299 124.602 21.7319 126.91 18.6139C129.197 15.5409 133.293 15.0669 136.258 17.5299C136.462 17.6649 136.598 17.7779 136.938 18.0719H136.937ZM134.402 21.5289C132.886 21.5289 131.732 22.7489 131.732 24.4209C131.732 26.0939 132.841 27.3139 134.38 27.3139C135.919 27.3139 137.073 26.0939 137.073 24.4439C137.073 22.7939 135.919 21.5289 134.403 21.5289H134.402ZM123.468 32.4399H116.76C116.737 31.8969 116.692 31.3769 116.669 30.8799C116.374 30.7439 116.261 31.0149 116.102 31.1509C113.202 33.7519 109.009 33.3449 106.698 30.2239C104.341 27.0579 104.386 21.6739 106.788 18.5539C109.1 15.5459 113.179 15.1159 116.08 17.5589C116.216 17.6719 116.352 17.7849 116.669 18.0559V10.9539H122.879C123.332 10.9539 123.468 11.1809 123.445 11.5879C123.422 12.1529 123.445 12.7179 123.445 13.2839V31.1289C123.468 31.5589 123.468 31.9649 123.468 32.4399ZM116.873 24.4569C116.873 22.8279 115.694 21.5619 114.199 21.5389C112.68 21.5389 111.502 22.7829 111.502 24.4339C111.502 26.0849 112.635 27.3289 114.176 27.3289C115.672 27.3289 116.85 26.0849 116.873 24.4569V24.4569ZM85.5728 32.0199H78.9938V27.1429V23.9139C78.9718 22.4219 78.3028 21.5759 77.1878 21.5979C76.0498 21.6209 75.3588 22.4219 75.3368 23.9139C75.2918 26.2969 75.3138 28.6569 75.3138 31.0399C75.3138 31.3299 75.2918 31.6189 75.2698 31.9969H68.7798V10.9539H75.3138V17.9239C75.8718 17.8799 76.0278 17.5009 76.2958 17.2789C78.1238 15.7869 80.1538 15.4079 82.3388 16.2089C84.4358 16.9669 85.4838 18.6369 85.5508 20.7299C85.6618 24.4259 85.5728 28.1669 85.5728 32.0199V32.0199ZM160.479 31.5719H154.031C154.007 31.1203 153.978 30.6689 153.944 30.2179C152.798 31.2489 151.564 31.8289 150.158 31.9799C146.393 32.3879 143.818 29.6159 144.662 26.0059C145.052 24.3509 146.155 23.3629 147.734 22.8259C149.422 22.2659 151.132 22.3529 152.863 22.6749C153.209 22.7389 153.555 22.8039 153.901 22.8469C154.009 21.5369 153.447 20.8269 152.127 20.6339C150.374 20.3539 148.687 20.7839 146.934 21.3859C146.544 19.9669 146.198 18.6139 145.787 17.1309C149.552 15.9269 153.252 15.4979 156.952 16.8299C158.899 17.5179 160.046 19.0429 160.284 21.1059C160.695 24.5449 160.327 28.0259 160.479 31.5719V31.5719ZM152.841 25.0819C151.521 25.0599 150.742 25.6619 150.699 26.7149C150.655 27.6179 151.196 28.2409 152.062 28.2839C153.209 28.3479 154.009 27.4029 154.096 26.0059C154.161 24.9309 153.339 25.2319 152.841 25.0819V25.0819ZM104.102 25.9859H94.3758C94.7218 27.5119 96.0438 28.3419 97.5378 28.0949C98.3828 27.9599 99.0978 27.5559 99.7258 26.9729C100.008 26.7259 100.225 26.4569 100.636 26.8159C101.633 27.6689 102.651 28.4989 103.691 29.3519C101.243 32.5379 98.0808 33.3239 94.5058 32.6279C91.3858 31.9999 89.1978 30.1379 88.4398 26.8379C87.6818 23.5389 88.2668 20.4649 90.7798 18.1309C93.2698 15.8199 96.2388 15.5279 99.2928 16.6279C102.456 17.7719 103.756 20.4429 104.081 23.7189C104.146 24.3919 104.102 25.1099 104.102 25.9859V25.9859ZM94.2018 22.9339H98.2098C97.8848 21.3179 97.1918 20.6219 96.0438 20.6889C95.0258 20.7569 94.4188 21.4969 94.2018 22.9339ZM67.8268 20.4929C66.292 21.3548 64.7619 22.2251 63.2368 23.1039C61.6708 21.3939 60.3268 21.1229 59.2078 22.2259C58.0438 23.3519 58.0888 25.6029 59.2748 26.7059C60.3948 27.7199 61.7828 27.4049 63.2598 25.7159C64.8048 26.5939 66.3938 27.4949 67.9388 28.3959C66.4838 31.7729 62.4538 33.5289 58.3578 32.6279C54.6188 31.7729 51.8658 28.2149 51.9548 24.3199C52.0448 20.2899 54.8428 16.9349 58.7148 16.1919C62.8118 15.4269 66.4838 17.1149 67.8268 20.4919V20.4929ZM174.79 16.0399V22.8819C174.606 22.9259 174.469 22.9709 174.331 22.9709C171.169 23.1709 169.909 24.4189 169.771 27.4949C169.702 28.9649 169.748 30.4589 169.748 32.0189H163.011V16.2859H169.748V18.7599C170.986 17.0439 172.429 15.7959 174.79 16.0399ZM8.43678 36.0549C9.55378 36.3009 10.2908 35.9879 10.9388 35.0149C11.3848 34.3329 11.2958 33.4609 10.6818 32.6329C10.2568 32.0629 9.72178 31.6379 9.03978 31.4479C8.79478 31.3809 8.65978 31.2909 8.69378 30.9889C9.07378 27.5679 8.98378 24.1459 8.86178 20.7129C8.86178 20.5899 8.87178 20.4549 8.88378 20.3329C10.6708 20.5229 12.6468 19.3599 13.3288 17.7049C13.6078 17.0339 13.5288 16.3399 13.2608 15.6919C12.4798 13.7909 11.0058 12.6949 9.04078 12.2249C8.70478 12.1469 8.59278 12.0239 8.53778 11.6999C8.09078 9.01595 7.63278 6.34294 7.17478 3.65994C7.09253 3.16543 6.92648 2.68858 6.68378 2.24994C6.48278 1.89294 6.29278 1.53495 6.12478 1.15495C5.99078 0.852946 5.70078 0.505945 5.90178 0.225945C6.13678 -0.0870554 6.59478 0.00294567 6.95178 0.0469457C7.98978 0.181946 8.90578 0.639946 9.76578 1.20995C10.5096 1.70804 11.2396 2.22656 11.9548 2.76494C14.0548 4.32994 16.3208 4.60995 18.7548 3.65895C19.1688 3.49195 19.5928 3.34595 20.0068 3.17895C21.1228 2.73095 22.2738 2.51894 23.4908 2.60894C24.7858 2.69794 26.0928 2.63095 27.3878 2.83195C29.1528 3.11195 30.0348 3.93894 30.4378 5.70594C30.6938 6.83594 30.7608 7.99795 30.7158 9.14995C30.6158 11.9229 31.0618 14.6399 31.3638 17.3799C31.5988 19.4939 32.0898 21.5629 32.2458 23.6869C32.3492 25.011 32.0986 26.3387 31.5198 27.5339C31.3978 27.7799 31.2518 27.9479 30.9948 28.0709C28.7398 29.2109 28.2478 31.6269 29.8678 33.5729C30.2478 34.0309 30.7048 34.4109 31.1738 34.7799C32.5478 35.8649 33.1168 37.3299 33.0498 39.0399C33.0058 40.1699 32.3358 40.9199 31.3418 41.4109C30.3248 41.9149 29.2198 42.0709 28.1028 42.1709C27.3208 42.2509 26.5398 42.239 25.7688 42.306C25.1988 42.351 24.7088 42.1939 24.2498 41.8919C23.7808 41.5789 23.3118 41.2879 22.8428 40.9749C21.7928 40.2709 20.6878 40.2369 19.5488 40.6849C19.0128 40.8969 18.4768 41.1549 18.0408 41.5119C16.4208 42.8319 14.5348 43.4239 12.5018 43.6259C12.1558 43.6589 11.7988 43.7259 11.4518 43.7819C10.2688 43.9499 9.47578 43.5019 9.00678 42.4069C8.69378 41.6569 8.59278 40.863 8.52678 40.07C8.38078 38.728 8.44778 37.3969 8.43678 36.0549V36.0549ZM14.3448 31.0119C12.9598 30.9889 12.0448 31.7389 11.8878 33.0019C11.6758 34.8139 12.8038 37.0719 14.4118 37.9669C15.3158 38.4699 16.2428 38.6269 17.1248 37.9449C18.1978 37.1169 19.1578 36.1779 19.1248 34.6569C19.1248 34.5669 19.0798 34.4779 19.0568 34.3889C18.6218 32.5989 16.4438 31.0449 14.3448 31.0119V31.0119ZM21.8488 10.9619C21.8938 11.6769 22.1168 12.3919 22.5418 13.0079C23.6578 14.6069 25.2888 15.1999 26.7518 12.9859C27.2428 12.2479 27.2208 11.5099 26.7408 10.7939C25.9808 9.68694 24.8978 9.12795 23.5808 9.09395C22.4858 9.08295 21.8378 9.80995 21.8488 10.9619ZM25.6128 40.4049C26.2158 40.4159 26.7958 40.2929 27.2988 39.9469C28.0028 39.4659 28.0248 38.7609 27.3438 38.2579C26.4608 37.5869 24.7418 37.5979 23.8708 38.2799C23.2448 38.7719 23.2338 39.4319 23.8708 39.9019C24.3838 40.2819 24.9758 40.4049 25.6128 40.4049ZM20.5648 29.1329C20.0738 29.1669 19.6048 29.2559 19.2028 29.5579C18.4878 30.0839 18.4878 30.8999 19.1908 31.4369C19.9398 32.0069 21.2128 32.0069 21.9718 31.4469C22.6758 30.9219 22.6868 30.0949 21.9828 29.5689C21.5588 29.2559 21.0678 29.1549 20.5648 29.1329V29.1329ZM27.6448 6.83495C27.0868 6.82395 26.5728 6.95794 26.1378 7.31594C25.6018 7.76294 25.5898 8.38995 26.1038 8.85895C26.8638 9.55295 28.4488 9.55295 29.1978 8.85895C29.6878 8.40095 29.6878 7.79695 29.1978 7.34895C28.7508 6.94695 28.2148 6.82395 27.6448 6.83495V6.83495ZM22.2178 34.7249C22.8538 34.7349 23.3678 34.3549 23.3788 33.8519C23.3898 33.3599 22.8878 32.9349 22.2618 32.9239C21.6478 32.9129 21.1228 33.3149 21.1018 33.8069C21.0898 34.3219 21.5818 34.7129 22.2178 34.7239V34.7249ZM20.7998 23.8199C20.1968 23.8199 19.7388 24.2339 19.7498 24.7369C19.7608 25.2069 20.2298 25.6099 20.7878 25.6209C21.3688 25.6319 21.8488 25.2179 21.8488 24.7149C21.8598 24.2009 21.4028 23.8199 20.7988 23.8199H20.7998ZM29.5878 5.61494C29.3538 5.68194 29.0298 5.73795 29.0628 6.14095C29.0968 6.48795 29.3868 6.58794 29.6778 6.57694C29.9898 6.57694 30.3028 6.46495 30.2918 6.08495C30.2698 5.72695 29.9678 5.63794 29.5878 5.61494Z" fill="white"/>
<path d="M7.46278 39.922C7.01478 38.299 6.55678 36.676 6.10878 35.053C4.58978 29.524 3.09378 23.996 1.76078 18.433C1.68378 18.131 1.67278 17.863 1.78278 17.572C2.25278 16.206 2.03278 14.998 0.908777 14.046C0.733777 13.901 0.689777 13.722 0.645777 13.52C0.405777 12.311 0.165777 11.103 0.0127766 9.883C-0.0852234 9.066 0.405777 8.428 0.624777 7.712C0.678777 7.522 0.874777 7.622 1.00678 7.633C2.25178 7.712 3.18078 7.096 3.51978 5.865C3.81478 4.791 4.03278 3.705 3.10378 2.787C3.00578 2.687 2.96178 2.586 3.04978 2.44C3.59578 1.59 4.17478 0.762 4.98278 0C5.43078 1.467 5.94478 2.81 6.16278 4.253C6.52278 6.593 6.92778 8.92 7.33278 11.248C7.40878 11.662 7.37578 11.898 6.90578 12.043C5.94478 12.356 5.52978 13.184 5.41978 14.136C5.20178 16.229 5.80278 18.042 7.38678 19.441C7.47192 19.5096 7.54063 19.5964 7.58786 19.6951C7.6351 19.7937 7.65967 19.9016 7.65978 20.011C7.75778 23.548 7.91078 27.096 7.54978 30.632C7.51778 30.935 7.46278 31.17 7.21178 31.405C6.63278 31.953 6.66578 32.703 6.73178 33.442C6.75278 33.665 6.80778 33.878 6.88378 34.091C7.56178 35.982 7.26678 37.985 7.64878 39.911C7.58278 39.911 7.52878 39.921 7.46278 39.921V39.922Z" fill="white"/>
</svg>
