<svg xmlns="http://www.w3.org/2000/svg" viewBox="0 0 200 200" width="5px" height="3px" fill="#fff" class="complex-logo cmplx-svg-complex-square-light"><path d="M6.507 71.328V26.884C6.507 11.184 9.82 0 29.937 0h6.902c14.193 0 19.324 11.184 19.324 27.027v8.752h-21.29V21.62c0-1.253-1.07-2.332-2.316-2.332-1.5 0-2.667 1.08-2.667 2.333v53.29c0 1.52 1.324 2.446 2.534 2.446h23.74V97.33H27.73C13.85 97.33 6.507 87 6.507 71.327zM61.932 77.5V20.796C61.932 6.913 68.642.17 82.567.17h11.03c13.886 0 20.622 6.743 20.622 20.626V77.5c0 13.916-6.74 20.66-20.627 20.66h-11.03c-13.923 0-20.636-6.744-20.634-20.66zm23.427-1.393c0 1.453 1.19 2.617 2.77 2.617 1.48 0 2.66-1.164 2.66-2.617V22.094c0-1.496-1.18-2.632-2.805-2.632a2.612 2.612 0 0 0-2.63 2.632v54.013zm-29.04 48.166v17.516c0 13.88-5.416 20.65-19.303 20.65h-7.154V200H6.476v-96.352h30.546c13.886 0 19.303 6.73 19.302 20.625zm-21.664.586c0-1.455-1.113-2.65-2.447-2.65h-2.4v22.803l2.403.02c1.333 0 2.446-1.17 2.446-2.62v-17.557zm108.33-71.09l5.72 43.56h15.587l5.324-43.56v43.56h23.202V.995H162l-5.704 43.588L150.532.996h-30.714v96.34h23.173l.005-43.565zm-21.91 107.07h14.143V140.83h-14.14v-17.637h14.836V103.49H99.652v96.355h36.533V179.87H121.08v-19.03zm-37.114-57.35h-23.3v96.353H95.27V179.87H83.966v-76.38zM181.23 150l12.135-46.508h-20.34l-5.02 24.355-4.073-24.355H140.66l11.96 49.775-12.317 46.486H160.8l4.896-24.75 4.307 24.75h23.52L181.23 150z"></path></svg>