<svg width="140" height="60" viewBox="0 0 140 60" fill="none" xmlns="http://www.w3.org/2000/svg">
<path d="M56.9312 60C84.4778 60 99.551 36.9094 99.551 16.9193C99.551 16.2697 99.551 15.6201 99.5218 14.9705C102.443 12.8445 104.984 10.1575 107 7.11614C104.313 8.32677 101.421 9.12402 98.3826 9.50787C101.479 7.64764 103.845 4.66535 104.984 1.12205C102.092 2.86417 98.8792 4.10433 95.4614 4.78346C92.7155 1.83071 88.8303 0 84.5362 0C76.2693 0 69.5506 6.79134 69.5506 15.1476C69.5506 16.3287 69.6967 17.4803 69.9304 18.6024C57.4862 17.9823 46.4442 11.9291 39.0536 2.77559C37.7683 5.01969 37.038 7.61811 37.038 10.3937C37.038 15.6496 39.6963 20.2854 43.6983 23.002C41.2445 22.9134 38.9368 22.2342 36.9212 21.1122C36.9212 21.1713 36.9212 21.2303 36.9212 21.3189C36.9212 28.6417 42.0916 34.7835 48.9272 36.1713C47.6711 36.5256 46.3565 36.7028 44.9836 36.7028C44.0196 36.7028 43.0848 36.6142 42.1793 36.437C44.078 42.4606 49.6283 46.8307 56.1717 46.9488C51.0304 51.0236 44.5746 53.4449 37.5638 53.4449C36.3661 53.4449 35.1685 53.3858 34 53.2382C40.6018 57.4902 48.489 60 56.9312 60Z" fill="white"/>
</svg>
