<?xml version="1.0" encoding="UTF-8"?>
<svg width="493px" height="83px" viewBox="0 0 493 83" version="1.1" xmlns="http://www.w3.org/2000/svg" xmlns:xlink="http://www.w3.org/1999/xlink">
    <!-- Generator: Sketch 58 (84663) - https://sketch.com -->
    <title>T-Mobile_logo</title>
    <desc>Created with Sketch.</desc>
    <g id="Page-1" stroke="none" stroke-width="1" fill="none" fill-rule="evenodd">
        <g id="T-Mobile_logo" fill="#FFFFFF" fill-rule="nonzero">
            <path d="M368.418004,8.65149784 C368.41911,10.9718013 367.213242,13.1163362 365.254898,14.2768159 C363.296553,15.4372956 360.883454,15.4372956 358.925109,14.2768159 C356.966765,13.1163362 355.760897,10.9718013 355.762003,8.65149784 C355.760897,6.33119436 356.966765,4.18665947 358.925109,3.02617976 C360.883454,1.86570004 363.296553,1.86570004 365.254898,3.02617976 C367.213242,4.18665947 368.41911,6.33119436 368.418004,8.65149784 L368.418004,8.65149784 Z" id="path3209"></path>
            <rect id="rect3211" x="464.84003" y="37.16901" width="16.107" height="16.437"></rect>
            <rect id="rect3213" x="145.39101" y="37.16901" width="16.107" height="16.437"></rect>
            <rect id="rect3215" x="97.07899" y="37.16901" width="16.107" height="16.437"></rect>
            <rect id="rect3217" x="49.5" y="37.16901" width="16.107" height="16.437"></rect>
            <rect id="rect3219" x="0.225998" y="37.16901" width="16.107" height="16.437"></rect>
            <path d="M38.909,4.36 L40.82,4.36 C53.163,4.36 58.916,10.963 61.32,28.572 L65.142,28.403 L64.632,0.465 L1.824,0.465 L1.205,28.403 L4.883,28.572 C5.52,21.969 6.284,18.413 7.942,14.857 C10.873,8.253 16.99,4.36 24.508,4.36 L27.184,4.36 L27.184,65.144 C27.184,71.578 26.802,73.61 25.274,75.134 C23.999,76.319 21.45,76.827 18.518,76.827 L15.587,76.827 L15.587,80.89 L50.506,80.89 L50.506,76.827 L47.557,76.827 C44.644,76.827 42.077,76.318 40.821,75.134 C39.292,73.61 38.91,71.577 38.91,65.144 L38.91,4.36" id="path3221"></path>
            <path d="M205.053,80.891 L225.403,9.885 L225.403,65.606 C225.403,71.687 225.057,73.824 223.677,75.303 C222.641,76.453 220.24,76.947 217.578,76.947 L216.543,76.947 L216.543,80.891 L245.308,80.891 L245.308,76.947 L243.811,76.947 C241.165,76.947 238.749,76.454 237.714,75.303 C236.332,73.824 235.987,71.687 235.987,65.606 L235.987,18.104 C235.987,12.022 236.332,9.721 237.714,8.242 C238.864,7.256 241.165,6.598 243.811,6.598 L245.308,6.598 L245.308,2.817 L222.987,2.817 L206.188,60.181 L189.751,2.817 L167.545,2.817 L167.545,6.598 L169.615,6.598 C175.714,6.598 176.864,7.913 176.864,15.803 L176.864,61.003 C176.864,68.235 176.519,71.194 175.483,73.331 C174.333,75.468 171.9,76.947 169.385,76.947 L167.544,76.947 L167.544,80.891 L191.245,80.891 L191.245,76.947 L189.75,76.947 C186.759,76.947 184.342,75.796 182.945,73.495 C181.581,71.194 181.236,69.057 181.236,61.003 L181.236,9.886 L201.469,80.892 L205.053,80.892" id="path3223"></path>
            <path d="M270.044,25.335 C255.777,25.335 246.458,36.512 246.458,54.1 C246.458,71.03 255.777,82.536 269.684,82.536 C283.719,82.536 293.039,71.03 293.039,53.936 C293.039,37.005 283.719,25.335 270.044,25.335 M269.584,29.115 C273.71,29.115 277.276,31.745 279.232,36.183 C281.073,40.292 281.878,45.881 281.878,53.935 C281.878,70.535 277.851,78.753 269.683,78.753 C261.53,78.753 257.601,70.534 257.601,53.77 C257.601,45.88 258.422,40.292 260.263,36.183 C262.089,31.91 265.787,29.115 269.584,29.115" id="path3225"></path>
            <path d="M312.155,1.995 L295.816,2.817 L295.816,6.433 L296.605,6.433 C301.438,6.433 302.49,8.077 302.49,15.802 L302.49,69.221 C302.49,76.124 302.26,77.933 301.34,80.891 L305.137,80.891 C307.996,76.124 308.703,75.303 309.854,75.303 C310.413,75.303 310.971,75.467 311.794,76.289 C317.447,80.891 319.863,81.877 325.041,81.877 C337.45,81.877 346.425,69.878 346.425,52.784 C346.425,36.676 338.124,25.828 325.715,25.828 C319.272,25.828 314.571,28.951 312.155,34.539 L312.155,1.995 M324.088,29.937 C331.469,29.937 335.265,37.827 335.265,53.277 C335.265,69.549 331.353,77.932 323.874,77.932 C315.59,77.932 311.233,69.384 311.233,53.77 C311.233,45.88 312.27,40.457 314.686,36.347 C316.855,32.403 320.554,29.937 324.088,29.937" id="path3227"></path>
            <path d="M367.711,26.157 L350.929,27.143 L350.929,30.759 L352.195,30.759 C357.01,30.759 358.047,32.403 358.047,39.964 L358.047,67.742 C358.047,75.304 357.011,77.112 352.195,77.112 L350.37,77.112 L350.37,80.891 L375.421,80.891 L375.421,77.112 L373.612,77.112 C368.763,77.112 367.712,75.467 367.712,67.742 L367.712,26.157" id="path3229"></path>
            <path d="M396.819,1.995 L380.037,2.817 L380.037,6.433 L381.288,6.433 C386.12,6.433 387.155,8.077 387.155,15.802 L387.155,67.741 C387.155,75.467 386.12,77.111 381.288,77.111 L379.463,77.111 L379.463,80.89 L404.528,80.89 L404.528,77.111 L402.687,77.111 C397.838,77.111 396.819,75.466 396.819,67.741 L396.819,1.995" id="path3231"></path>
            <path d="M450.306,53.606 C449.746,36.183 441.462,25.335 428.938,25.335 C416.84,25.335 408.112,37.169 408.112,53.606 C408.112,71.193 416.725,82.535 430.072,82.535 C438.701,82.535 444.684,77.932 449.632,67.741 L446.181,65.933 C442.154,74.48 438.127,77.932 431.913,77.932 C422.824,77.932 418.929,70.701 418.812,53.606 L450.306,53.606 M418.928,49.496 C419.027,37.169 423.036,29.444 429.496,29.444 C435.939,29.444 439.735,37.005 439.621,49.496 L418.928,49.496" id="path3233"></path>
            <g id="g3235" transform="translate(481.000000, 23.000000)">
                <g id="g3237">
                    <path d="M5.988,0.995 C6.96,0.995 7.909,1.244 8.835,1.743 C9.761,2.242 10.482,2.956 10.998,3.884 C11.516,4.812 11.774,5.78 11.774,6.788 C11.774,7.786 11.519,8.745 11.009,9.665 C10.501,10.586 9.786,11.301 8.869,11.81 C7.95,12.319 6.99,12.574 5.987,12.574 C4.984,12.574 4.024,12.32 3.105,11.81 C2.187,11.301 1.471,10.587 0.961,9.665 C0.449,8.745 0.193,7.786 0.193,6.788 C0.193,5.78 0.452,4.812 0.972,3.884 C1.491,2.956 2.214,2.241 3.138,1.743 C4.068,1.244 5.017,0.995 5.988,0.995 L5.988,0.995 Z M5.988,1.959 C5.176,1.959 4.384,2.167 3.616,2.584 C2.847,3.001 2.245,3.595 1.81,4.369 C1.376,5.143 1.16,5.95 1.16,6.787 C1.16,7.62 1.373,8.418 1.8,9.182 C2.226,9.946 2.823,10.541 3.589,10.968 C4.356,11.395 5.156,11.608 5.988,11.608 C6.822,11.608 7.62,11.395 8.387,10.968 C9.153,10.542 9.748,9.947 10.172,9.182 C10.596,8.418 10.809,7.62 10.809,6.787 C10.809,5.95 10.593,5.143 10.161,4.369 C9.729,3.596 9.128,3.001 8.356,2.584 C7.585,2.167 6.796,1.959 5.988,1.959 L5.988,1.959 Z M3.448,9.982 L3.448,3.752 L5.593,3.752 C6.324,3.752 6.856,3.81 7.183,3.925 C7.512,4.04 7.773,4.241 7.967,4.528 C8.162,4.814 8.26,5.119 8.26,5.441 C8.26,5.896 8.096,6.293 7.77,6.63 C7.446,6.967 7.013,7.157 6.474,7.198 C6.695,7.29 6.871,7.4 7.004,7.528 C7.256,7.773 7.563,8.185 7.926,8.763 L8.687,9.983 L7.454,9.983 L6.899,9 C6.464,8.231 6.115,7.749 5.852,7.553 C5.668,7.408 5.399,7.336 5.046,7.336 L4.454,7.336 L4.454,9.983 L3.448,9.983 L3.448,9.982 Z M4.455,6.48 L5.681,6.48 C6.265,6.48 6.664,6.393 6.878,6.218 C7.092,6.043 7.197,5.812 7.197,5.524 C7.197,5.339 7.146,5.173 7.043,5.027 C6.94,4.881 6.799,4.771 6.615,4.699 C6.433,4.627 6.095,4.592 5.602,4.592 L4.455,4.592 L4.455,6.48 L4.455,6.48 Z" id="path3239"></path>
                </g>
            </g>
        </g>
    </g>
</svg>